<svg width="19" height="17" viewBox="0 0 19 17" fill="none" xmlns="http://www.w3.org/2000/svg">
<path d="M4.56985 7.87364H10.925V9.46242H4.56985V11.8456L0.5979 8.66803L4.56985 5.49047V7.87364ZM3.77546 13.4344H5.92667C6.84394 14.2433 7.97515 14.7704 9.18457 14.9524C10.394 15.1344 11.6302 14.9635 12.7449 14.4603C13.8596 13.9571 14.8055 13.143 15.4689 12.1155C16.1324 11.0881 16.4853 9.89106 16.4853 8.66803C16.4853 7.445 16.1324 6.24795 15.4689 5.22052C14.8055 4.19309 13.8596 3.37893 12.7449 2.87573C11.6302 2.37253 10.394 2.20167 9.18457 2.38365C7.97515 2.56563 6.84394 3.09273 5.92667 3.90169H3.77546C4.51477 2.9144 5.47413 2.11312 6.57733 1.56152C7.68053 1.00992 8.89717 0.723197 10.1306 0.724123C14.518 0.724123 18.0745 4.28061 18.0745 8.66803C18.0745 13.0554 14.518 16.6119 10.1306 16.6119C8.89717 16.6129 7.68053 16.3261 6.57733 15.7745C5.47413 15.2229 4.51477 14.4217 3.77546 13.4344Z" fill="#F64E60"/>
</svg>
