<svg width="41" height="46" viewBox="0 0 41 46" fill="none" xmlns="http://www.w3.org/2000/svg">
<ellipse cx="20.6129" cy="23" rx="20.0575" ry="22.1667" fill="url(#paint0_linear_302_1438)"/>
<path d="M21.4903 27.6643H19.9191C18.8076 27.6643 17.8967 26.6299 17.8967 25.3553C17.8967 24.9766 18.1808 24.6626 18.5235 24.6626C18.8661 24.6626 19.1503 24.9766 19.1503 25.3553C19.1503 25.8633 19.4929 26.2789 19.9191 26.2789H21.4903C21.8162 26.2789 22.0753 25.9556 22.0753 25.5585C22.0753 25.0597 21.95 24.9858 21.6658 24.875L19.1503 23.9052C18.6154 23.702 17.8967 23.2679 17.8967 21.9102C17.8967 20.7557 18.724 19.8044 19.7353 19.8044H21.3064C22.418 19.8044 23.3289 20.8389 23.3289 22.1134C23.3289 22.4921 23.0448 22.8061 22.7021 22.8061C22.3595 22.8061 22.0753 22.4921 22.0753 22.1134C22.0753 21.6055 21.7327 21.1898 21.3064 21.1898H19.7353C19.4093 21.1898 19.1503 21.5131 19.1503 21.9102C19.1503 22.409 19.2756 22.4829 19.5598 22.5937L22.0753 23.5635C22.6102 23.7667 23.3289 24.2008 23.3289 25.5585C23.3289 26.7222 22.5015 27.6643 21.4903 27.6643Z" fill="#00AC4F"/>
<path d="M20.6129 28.588C20.2702 28.588 19.9861 28.274 19.9861 27.8953V19.5828C19.9861 19.2041 20.2702 18.8901 20.6129 18.8901C20.9555 18.8901 21.2397 19.2041 21.2397 19.5828V27.8953C21.2397 28.274 20.9555 28.588 20.6129 28.588Z" fill="#00AC4F"/>
<path d="M20.6125 33.6679C15.6566 33.6679 11.6284 29.2161 11.6284 23.739C11.6284 18.262 15.6566 13.8102 20.6125 13.8102C20.9552 13.8102 21.2393 14.1243 21.2393 14.5029C21.2393 14.8816 20.9552 15.1956 20.6125 15.1956C16.3503 15.1956 12.882 19.0286 12.882 23.739C12.882 28.4495 16.3503 32.2824 20.6125 32.2824C24.8747 32.2824 28.343 28.4495 28.343 23.739C28.343 23.3604 28.6272 23.0463 28.9698 23.0463C29.3125 23.0463 29.5966 23.3604 29.5966 23.739C29.5966 29.2161 25.5684 33.6679 20.6125 33.6679Z" fill="#00AC4F"/>
<path d="M28.1348 19.8137H24.7919C24.4492 19.8137 24.1651 19.4997 24.1651 19.121V15.4266C24.1651 15.0479 24.4492 14.7339 24.7919 14.7339C25.1345 14.7339 25.4187 15.0479 25.4187 15.4266V18.4283H28.1348C28.4775 18.4283 28.7616 18.7423 28.7616 19.121C28.7616 19.4997 28.4775 19.8137 28.1348 19.8137Z" fill="#00AC4F"/>
<path d="M24.7908 19.8145C24.632 19.8145 24.4732 19.7499 24.3478 19.6113C24.1055 19.3435 24.1055 18.9002 24.3478 18.6323L28.5265 14.0143C28.7689 13.7464 29.17 13.7464 29.4124 14.0143C29.6547 14.2821 29.6547 14.7254 29.4124 14.9933L25.2337 19.6113C25.1084 19.7499 24.9496 19.8145 24.7908 19.8145Z" fill="#00AC4F"/>
<defs>
<linearGradient id="paint0_linear_302_1438" x1="36.1575" y1="0.83336" x2="17.7052" y2="43.9214" gradientUnits="userSpaceOnUse">
<stop stop-color="#D3FFE7"/>
<stop offset="1" stop-color="#EFFFF6"/>
</linearGradient>
</defs>
</svg>
