<svg width="18" height="18" viewBox="0 0 18 18" fill="none" xmlns="http://www.w3.org/2000/svg">
<path opacity="0.2" d="M15.0397 12.6533C14.5757 11.8546 14.0488 10.3932 14.0488 7.87496V7.37601C14.0488 4.58457 11.8222 2.27079 9.03856 2.2501L15.0397 12.6533ZM15.0397 12.6533C15.0897 12.7386 15.1163 12.8356 15.1168 12.9345C15.1173 13.0334 15.0918 13.1307 15.0427 13.2166C14.9936 13.3025 14.9228 13.3739 14.8373 13.4236C14.7518 13.4734 14.6547 13.4997 14.5558 13.5L15.0397 12.6533ZM4.01428 7.31246L4.01428 7.31237C4.01336 6.6535 4.14286 6.00096 4.3953 5.39237C4.64775 4.78378 5.01816 4.23117 5.48517 3.7664C5.95218 3.30163 6.50656 2.93389 7.11636 2.68437C7.72615 2.43486 8.37929 2.30851 9.03814 2.3126C11.7863 2.33305 13.9863 4.61772 13.9863 7.37601V7.87496C13.9863 10.4021 14.5151 11.8747 14.9857 12.6847L14.9858 12.6849C15.0302 12.7607 15.0538 12.8469 15.0543 12.9349C15.0548 13.0228 15.0321 13.1093 14.9884 13.1856C14.9448 13.2619 14.8819 13.3254 14.8059 13.3696C14.7299 13.4138 14.6436 13.4372 14.5557 13.4375H3.44433C3.3564 13.4372 3.2701 13.4138 3.19411 13.3696C3.11812 13.3254 3.05514 13.2619 3.01153 13.1855C2.96791 13.1092 2.9452 13.0227 2.94569 12.9348C2.94617 12.8468 2.96984 12.7606 3.01429 12.6847L3.01441 12.6846C3.48526 11.8745 4.01428 10.4019 4.01428 7.87496L4.01428 7.31246Z" fill="#0A423F" stroke="#AAAFB5" stroke-width="0.125"/>
<path d="M3.95178 7.31246C3.95085 6.64534 4.08197 5.98463 4.33757 5.36842C4.59318 4.75221 4.96822 4.19269 5.44108 3.7221C5.91394 3.25151 6.47526 2.87917 7.09269 2.62653C7.71013 2.37389 8.37146 2.24596 9.03856 2.2501C11.8222 2.27079 14.0488 4.58457 14.0488 7.37601V7.87496C14.0488 10.3932 14.5757 11.8546 15.0397 12.6533C15.0897 12.7386 15.1163 12.8356 15.1168 12.9345C15.1173 13.0334 15.0918 13.1307 15.0427 13.2166C14.9936 13.3025 14.9228 13.3739 14.8373 13.4236C14.7518 13.4734 14.6547 13.4997 14.5558 13.5H3.44417C3.34525 13.4997 3.24815 13.4734 3.16267 13.4236C3.07718 13.3738 3.00633 13.3024 2.95726 13.2165C2.90819 13.1306 2.88264 13.0333 2.88319 12.9344C2.88373 12.8355 2.91036 12.7385 2.96037 12.6531C3.42466 11.8544 3.95178 10.3931 3.95178 7.87496L3.95178 7.31246Z" stroke="#AAAFB5" stroke-linecap="round" stroke-linejoin="round"/>
<path d="M6.75 13.5V14.0625C6.75 14.6592 6.98705 15.2315 7.40901 15.6535C7.83097 16.0754 8.40326 16.3125 9 16.3125C9.59674 16.3125 10.169 16.0754 10.591 15.6535C11.0129 15.2315 11.25 14.6592 11.25 14.0625V13.5" stroke="#AAAFB5" stroke-linecap="round" stroke-linejoin="round"/>
<circle cx="13.5" cy="4.5" r="3.375" fill="#F9BC60"/>
</svg>
